<svg width="24" height="24" viewBox="0 0 24 24" fill="none" xmlns="http://www.w3.org/2000/svg">
<path fill-rule="evenodd" clip-rule="evenodd" d="M12.3814 2.29297L12.4684 2.11898C12.556 1.954 12.783 1.96764 12.859 2.11636L12.9433 2.28514L12.9473 2.29294C13.3725 3.11785 14.0443 3.78973 14.8692 4.21495L15.0432 4.30194C15.2082 4.38954 15.1945 4.6165 15.0458 4.69248L14.877 4.7768L14.8692 4.78082C14.0443 5.20603 13.3725 5.87784 12.9473 6.70275L12.8603 6.87672C12.7727 7.04172 12.5457 7.02808 12.4697 6.87936L12.3854 6.71058L12.3814 6.70278C11.9562 5.87787 11.2844 5.20599 10.4595 4.78077L10.2855 4.69378C10.1205 4.60618 10.1342 4.37922 10.2829 4.30324L10.4517 4.21892L10.4595 4.2149C11.2844 3.78969 11.9562 3.11788 12.3814 2.29297Z" fill="currentColor"/>
<path fill-rule="evenodd" clip-rule="evenodd" d="M6.18985 7.01182C6.28192 6.83137 6.53242 6.83137 6.62448 7.01182L6.62538 7.01358L7.16154 8.0573C7.70818 9.11797 8.57373 9.98312 9.63437 10.5298L10.6772 11.0655L10.679 11.0664C10.8594 11.1585 10.8594 11.409 10.679 11.501L10.6772 11.5019L9.63353 12.0381C8.57288 12.5847 7.70774 13.4503 7.1611 14.511L6.62538 15.5538L6.62448 15.5556C6.53242 15.7361 6.28192 15.7361 6.18986 15.5556L5.6528 14.5101C5.10616 13.4495 4.24061 12.5843 3.17996 12.0377L2.1371 11.5019L2.13534 11.501C1.95489 11.409 1.95489 11.1585 2.13534 11.0664L2.1371 11.0655L3.18081 10.5293C4.24145 9.98268 5.10659 9.11712 5.65324 8.05646L6.18895 7.01358L6.18985 7.01182Z" fill="currentColor"/>
<path fill-rule="evenodd" clip-rule="evenodd" d="M15.8505 10.8405C16.0337 10.4814 16.5376 10.4814 16.7209 10.8405L16.7218 10.8423L17.3946 12.1522C18.0634 13.4499 19.1222 14.5083 20.4199 15.1771L21.7289 15.8495L21.7307 15.8504C22.0898 16.0336 22.0898 16.5376 21.7307 16.7208L21.7289 16.7217L20.419 17.3946C19.1214 18.0634 18.063 19.1222 17.3942 20.4198L16.7218 21.7289L16.7209 21.7307C16.5376 22.0898 16.0337 22.0898 15.8505 21.7307L15.1767 20.419C14.5079 19.1213 13.4491 18.0629 12.1515 17.3941L10.8425 16.7217L10.8407 16.7208C10.4816 16.5376 10.4816 16.0336 10.8407 15.8504L10.8425 15.8495L12.1523 15.1766C13.45 14.5078 14.5084 13.449 15.1772 12.1513L15.8496 10.8423L15.8505 10.8405Z" fill="currentColor"/>
</svg>
