<svg width="24" height="24" viewBox="0 0 24 24" fill="none" xmlns="http://www.w3.org/2000/svg">
<g clip-path="url(#clip0_8397_43661)">
<path d="M21 8.00002C19.55 8.00002 18.74 9.44002 19.07 10.51L15.52 14.07C15.22 13.98 14.78 13.98 14.48 14.07L11.93 11.52C12.27 10.45 11.46 9.00002 10 9.00002C8.55 9.00002 7.73 10.44 8.07 11.52L3.51 16.07C2.44 15.74 1 16.55 1 18C1 19.1 1.9 20 3 20C4.45 20 5.26 18.56 4.93 17.49L9.48 12.93C9.78 13.02 10.22 13.02 10.52 12.93L13.07 15.48C12.73 16.55 13.54 18 15 18C16.45 18 17.27 16.56 16.93 15.48L20.49 11.93C21.56 12.26 23 11.45 23 10C23 8.90001 22.1 8.00002 21 8.00002Z" fill="currentColor"/>
<path d="M15 9.00002L15.94 6.93002L18 6.00002L15.94 5.07002L15 3.00002L14.08 5.07002L12 6.00002L14.08 6.93002L15 9.00002Z" fill="currentColor"/>
<path d="M3.5 11L4 9.00002L6 8.50002L4 8.00002L3.5 6.00002L3 8.00002L1 8.50002L3 9.00002L3.5 11Z" fill="currentColor"/>
</g>
<defs>
<clipPath id="clip0_8397_43661">
<rect width="24" height="24" fill="white"/>
</clipPath>
</defs>
</svg>
