<svg width="24" height="24" viewBox="0 0 24 24" fill="none" xmlns="http://www.w3.org/2000/svg">
<path fill-rule="evenodd" clip-rule="evenodd" d="M16.8175 6.5575C16.8757 6.61556 16.9219 6.68453 16.9534 6.76046C16.9849 6.83639 17.0011 6.91779 17.0011 7C17.0011 7.08221 16.9849 7.16361 16.9534 7.23954C16.9219 7.31547 16.8757 7.38444 16.8175 7.4425L12.2587 12L16.8175 16.5575C16.9349 16.6749 17.0008 16.834 17.0008 17C17.0008 17.166 16.9349 17.3251 16.8175 17.4425C16.7001 17.5599 16.541 17.6258 16.375 17.6258C16.209 17.6258 16.0499 17.5599 15.9325 17.4425L10.9325 12.4425C10.8743 12.3844 10.8281 12.3155 10.7966 12.2395C10.7651 12.1636 10.7489 12.0822 10.7489 12C10.7489 11.9178 10.7651 11.8364 10.7966 11.7605C10.8281 11.6845 10.8743 11.6156 10.9325 11.5575L15.9325 6.5575C15.9906 6.4993 16.0595 6.45312 16.1355 6.42161C16.2114 6.3901 16.2928 6.37388 16.375 6.37388C16.4572 6.37388 16.5386 6.3901 16.6145 6.42161C16.6905 6.45312 16.7594 6.4993 16.8175 6.5575ZM7.625 3.25C7.45924 3.25 7.30027 3.31585 7.18306 3.43306C7.06585 3.55027 7 3.70924 7 3.875V20.125C7 20.2908 7.06585 20.4497 7.18306 20.5669C7.30027 20.6842 7.45924 20.75 7.625 20.75C7.79076 20.75 7.94973 20.6842 8.06694 20.5669C8.18415 20.4497 8.25 20.2908 8.25 20.125V3.875C8.25 3.70924 8.18415 3.55027 8.06694 3.43306C7.94973 3.31585 7.79076 3.25 7.625 3.25Z" fill="#8B8D98"/>
</svg>
