<svg width="24" height="24" viewBox="0 0 24 24" fill="none" xmlns="http://www.w3.org/2000/svg">
<path fill-rule="evenodd" clip-rule="evenodd" d="M7.1836 6.213C7.1254 6.2694 7.07923 6.3364 7.04772 6.41016C7.01622 6.48392 7 6.563 7 6.64286C7 6.72272 7.01622 6.80179 7.04772 6.87556C7.07923 6.94932 7.1254 7.01632 7.1836 7.07271L11.7418 11.5L7.1836 15.9273C7.06625 16.0413 7.00033 16.1959 7.00033 16.3571C7.00033 16.5184 7.06625 16.673 7.1836 16.787C7.30094 16.901 7.4601 16.9651 7.62605 16.9651C7.792 16.9651 7.95115 16.901 8.0685 16.787L13.0679 11.9299C13.1261 11.8735 13.1723 11.8065 13.2038 11.7327C13.2353 11.6589 13.2515 11.5799 13.2515 11.5C13.2515 11.4201 13.2353 11.3411 13.2038 11.2673C13.1723 11.1935 13.1261 11.1265 13.0679 11.0701L8.0685 6.213C8.01045 6.15646 7.94149 6.1116 7.86556 6.08099C7.78964 6.05038 7.70825 6.03463 7.62605 6.03463C7.54385 6.03463 7.46245 6.05038 7.38653 6.08099C7.31061 6.1116 7.24165 6.15646 7.1836 6.213ZM16.3751 3C16.5408 3 16.6998 3.06397 16.817 3.17783C16.9342 3.29169 17 3.44612 17 3.60714V19.3929C17 19.5539 16.9342 19.7083 16.817 19.8222C16.6998 19.936 16.5408 20 16.3751 20C16.2093 20 16.0504 19.936 15.9332 19.8222C15.816 19.7083 15.7501 19.5539 15.7501 19.3929V3.60714C15.7501 3.44612 15.816 3.29169 15.9332 3.17783C16.0504 3.06397 16.2093 3 16.3751 3Z" fill="#8B8D98"/>
</svg>
