<svg width="24" height="24" viewBox="0 0 24 24" fill="none" xmlns="http://www.w3.org/2000/svg">
<path fill-rule="evenodd" clip-rule="evenodd" d="M8.70711 4.29289C9.09763 4.68342 9.09763 5.31658 8.70711 5.70711L3.41421 11L8.70711 16.2929C9.09763 16.6834 9.09763 17.3166 8.70711 17.7071C8.31658 18.0976 7.68342 18.0976 7.29289 17.7071L1.29289 11.7071C0.902369 11.3166 0.902369 10.6834 1.29289 10.2929L7.29289 4.29289C7.68342 3.90237 8.31658 3.90237 8.70711 4.29289ZM15.2929 4.29289C15.6834 3.90237 16.3166 3.90237 16.7071 4.29289L22.7071 10.2929C23.0976 10.6834 23.0976 11.3166 22.7071 11.7071L16.7071 17.7071C16.3166 18.0976 15.6834 18.0976 15.2929 17.7071C14.9024 17.3166 14.9024 16.6834 15.2929 16.2929L20.5858 11L15.2929 5.70711C14.9024 5.31658 14.9024 4.68342 15.2929 4.29289Z" fill="currentColor"/>
</svg>