<svg width="16" height="16" viewBox="0 0 16 16" fill="none" xmlns="http://www.w3.org/2000/svg">
<path d="M0.533334 0C0.391885 0 0.25623 0.0561904 0.15621 0.15621C0.0561904 0.25623 0 0.391885 0 0.533334C0 0.674783 0.0561904 0.810439 0.15621 0.910459C0.25623 1.01048 0.391885 1.06667 0.533334 1.06667H1.71734L2.14507 2.78081L3.74294 11.2982C3.76582 11.4204 3.83068 11.5308 3.92631 11.6102C4.02194 11.6897 4.14234 11.7332 4.26667 11.7334H5.33334C4.76755 11.7334 4.22492 11.9581 3.82485 12.3582C3.42477 12.7583 3.20001 13.3009 3.20001 13.8667C3.20001 14.4325 3.42477 14.9751 3.82485 15.3752C4.22492 15.7753 4.76755 16 5.33334 16C5.89914 16 6.44176 15.7753 6.84184 15.3752C7.24192 14.9751 7.46668 14.4325 7.46668 13.8667C7.46668 13.3009 7.24192 12.7583 6.84184 12.3582C6.44176 11.9581 5.89914 11.7334 5.33334 11.7334H12.8C12.2342 11.7334 11.6916 11.9581 11.2915 12.3582C10.8914 12.7583 10.6667 13.3009 10.6667 13.8667C10.6667 14.4325 10.8914 14.9751 11.2915 15.3752C11.6916 15.7753 12.2342 16 12.8 16C13.3658 16 13.9084 15.7753 14.3085 15.3752C14.7086 14.9751 14.9334 14.4325 14.9334 13.8667C14.9334 13.3009 14.7086 12.7583 14.3085 12.3582C13.9084 11.9581 13.3658 11.7334 12.8 11.7334H13.8667C13.991 11.7332 14.1114 11.6897 14.2071 11.6102C14.3027 11.5308 14.3675 11.4204 14.3904 11.2982L15.9904 2.76481C16.0048 2.68783 16.0021 2.60863 15.9825 2.53282C15.9628 2.45702 15.9267 2.38647 15.8767 2.3262C15.8267 2.26592 15.7641 2.21739 15.6932 2.18406C15.6223 2.15073 15.545 2.13341 15.4667 2.13334H3.08267L2.65067 0.404267C2.62188 0.288837 2.55532 0.186346 2.46158 0.113093C2.36784 0.0398408 2.2523 3.28656e-05 2.13334 0H0.533334ZM6.40001 13.8667C6.40001 14.1496 6.28763 14.4209 6.08759 14.6209C5.88755 14.821 5.61624 14.9334 5.33334 14.9334C5.05045 14.9334 4.77913 14.821 4.5791 14.6209C4.37906 14.4209 4.26667 14.1496 4.26667 13.8667C4.26667 13.5838 4.37906 13.3125 4.5791 13.1124C4.77913 12.9124 5.05045 12.8 5.33334 12.8C5.61624 12.8 5.88755 12.9124 6.08759 13.1124C6.28763 13.3125 6.40001 13.5838 6.40001 13.8667ZM13.8667 13.8667C13.8667 14.1496 13.7543 14.4209 13.5543 14.6209C13.3542 14.821 13.0829 14.9334 12.8 14.9334C12.5171 14.9334 12.2458 14.821 12.0458 14.6209C11.8457 14.4209 11.7334 14.1496 11.7334 13.8667C11.7334 13.5838 11.8457 13.3125 12.0458 13.1124C12.2458 12.9124 12.5171 12.8 12.8 12.8C13.0829 12.8 13.3542 12.9124 13.5543 13.1124C13.7543 13.3125 13.8667 13.5838 13.8667 13.8667ZM9.60002 4.80001V6.40001H11.2C11.3415 6.40001 11.4771 6.4562 11.5771 6.55622C11.6772 6.65624 11.7334 6.7919 11.7334 6.93335C11.7334 7.0748 11.6772 7.21045 11.5771 7.31047C11.4771 7.41049 11.3415 7.46668 11.2 7.46668H9.60002V9.06668C9.60002 9.20813 9.54383 9.34379 9.44381 9.44381C9.34379 9.54383 9.20813 9.60002 9.06668 9.60002C8.92524 9.60002 8.78958 9.54383 8.68956 9.44381C8.58954 9.34379 8.53335 9.20813 8.53335 9.06668V7.46668H6.93335C6.7919 7.46668 6.65624 7.41049 6.55622 7.31047C6.4562 7.21045 6.40001 7.0748 6.40001 6.93335C6.40001 6.7919 6.4562 6.65624 6.55622 6.55622C6.65624 6.4562 6.7919 6.40001 6.93335 6.40001H8.53335V4.80001C8.53335 4.65856 8.58954 4.5229 8.68956 4.42289C8.78958 4.32287 8.92524 4.26667 9.06668 4.26667C9.20813 4.26667 9.34379 4.32287 9.44381 4.42289C9.54383 4.5229 9.60002 4.65856 9.60002 4.80001Z" fill="currentColor"/>
</svg>
