<svg width="24" height="24" viewBox="0 0 24 24" fill="none" xmlns="http://www.w3.org/2000/svg">
<path d="M12.5625 6.02283C13.2983 5.24771 14.5673 5.02608 16.0635 5.17683C17.4518 5.31633 18.8794 5.76521 19.875 6.18146V17.3448C18.8422 16.9511 17.5046 16.5663 16.1771 16.4336C14.9464 16.3087 13.6144 16.3897 12.5625 16.9871V6.02283ZM12 5.00583C10.8919 4.05296 9.28538 3.91121 7.82288 4.05746C6.11963 4.22958 4.40062 4.81346 3.32963 5.30058C3.23136 5.34528 3.14802 5.4173 3.08957 5.50807C3.03113 5.59883 3.00003 5.7045 3 5.81246V18.1875C3.00003 18.2816 3.02367 18.3742 3.06876 18.4568C3.11385 18.5394 3.17894 18.6094 3.25809 18.6603C3.33723 18.7112 3.42789 18.7415 3.52176 18.7483C3.61562 18.7551 3.7097 18.7383 3.79537 18.6993C4.78763 18.2493 6.38625 17.7082 7.93538 17.5518C9.5205 17.3921 10.8491 17.6497 11.5612 18.5385C11.614 18.6042 11.6807 18.6572 11.7567 18.6936C11.8326 18.73 11.9158 18.749 12 18.749C12.0842 18.749 12.1674 18.73 12.2433 18.6936C12.3193 18.6572 12.386 18.6042 12.4388 18.5385C13.1509 17.6497 14.4795 17.3921 16.0635 17.5518C17.6138 17.7082 19.2135 18.2493 20.2046 18.6993C20.2903 18.7383 20.3844 18.7551 20.4782 18.7483C20.5721 18.7415 20.6628 18.7112 20.7419 18.6603C20.8211 18.6094 20.8862 18.5394 20.9312 18.4568C20.9763 18.3742 21 18.2816 21 18.1875V5.81246C21 5.7045 20.9689 5.59883 20.9104 5.50807C20.852 5.4173 20.7686 5.34528 20.6704 5.30058C19.5994 4.81346 17.8804 4.22958 16.1771 4.05746C14.7146 3.91008 13.1081 4.05296 12 5.00583Z" fill="currentColor"/>
</svg>
