<svg width="16" height="16" viewBox="0 0 12.8 16" fill="none" xmlns="http://www.w3.org/2000/svg">
<path d="M6.4 1.06667C4.98551 1.06667 3.62896 1.62857 2.62876 2.62876C1.62857 3.62896 1.06667 4.98551 1.06667 6.4V7.46667H2.13333C2.41623 7.46667 2.68754 7.57905 2.88758 7.77909C3.08762 7.97913 3.2 8.25044 3.2 8.53333V11.7333C3.2 12.0162 3.08762 12.2875 2.88758 12.4876C2.68754 12.6876 2.41623 12.8 2.13333 12.8H1.06667C0.783769 12.8 0.512458 12.6876 0.312419 12.4876C0.112381 12.2875 0 12.0162 0 11.7333V6.4C-1.25238e-08 5.55954 0.165541 4.72731 0.487171 3.95083C0.808801 3.17434 1.28022 2.46881 1.87452 1.87452C2.46881 1.28022 3.17434 0.808801 3.95083 0.487171C4.72731 0.165541 5.55954 0 6.4 0C7.24046 0 8.07269 0.165541 8.84917 0.487171C9.62566 0.808801 10.3312 1.28022 10.9255 1.87452C11.5198 2.46881 11.9912 3.17434 12.3128 3.95083C12.6345 4.72731 12.8 5.55954 12.8 6.4V12.8C12.8 13.5072 12.519 14.1855 12.019 14.6856C11.5189 15.1857 10.8406 15.4667 10.1333 15.4667H7.85707C7.76345 15.6288 7.6288 15.7635 7.46665 15.8571C7.3045 15.9507 7.12057 16 6.93333 16H5.86667C5.58377 16 5.31246 15.8876 5.11242 15.6876C4.91238 15.4875 4.8 15.2162 4.8 14.9333C4.8 14.6504 4.91238 14.3791 5.11242 14.1791C5.31246 13.979 5.58377 13.8667 5.86667 13.8667H6.93333C7.12057 13.8667 7.3045 13.916 7.46665 14.0096C7.6288 14.1032 7.76345 14.2379 7.85707 14.4H10.1333C10.5577 14.4 10.9646 14.2314 11.2647 13.9314C11.5648 13.6313 11.7333 13.2243 11.7333 12.8H10.6667C10.3838 12.8 10.1125 12.6876 9.91242 12.4876C9.71238 12.2875 9.6 12.0162 9.6 11.7333V8.53333C9.6 8.25044 9.71238 7.97913 9.91242 7.77909C10.1125 7.57905 10.3838 7.46667 10.6667 7.46667H11.7333V6.4C11.7333 5.69962 11.5954 5.00609 11.3274 4.35902C11.0593 3.71195 10.6665 3.12401 10.1712 2.62876C9.67599 2.13352 9.08805 1.74067 8.44098 1.47264C7.79391 1.20462 7.10038 1.06667 6.4 1.06667Z" fill="currentColor"/>
</svg>
