<svg width="24" height="24" viewBox="0 0 24 24" fill="none" xmlns="http://www.w3.org/2000/svg">
<path d="M22 12.1669C21.9997 14.0012 21.4778 15.7989 20.4932 17.3569C19.5086 18.9148 18.1006 20.1709 16.4283 20.9832C14.756 21.7954 12.886 22.1316 11.0296 21.9536C9.17323 21.7756 7.40448 21.0905 5.9232 19.9758C4.44191 18.8612 3.30714 17.3613 2.64709 15.6456C1.98705 13.93 1.82804 12.067 2.18803 10.2672C2.54803 8.46734 3.41268 6.80239 4.68429 5.46045C5.9559 4.1185 7.58378 3.15306 9.384 2.6732C9.32697 2.47789 9.31688 2.27222 9.35452 2.07242C9.39216 1.87261 9.4765 1.68415 9.60088 1.52189C9.72527 1.35963 9.8863 1.22803 10.0713 1.13746C10.2562 1.04689 10.46 0.999829 10.6667 1H13.3333C13.54 0.999829 13.7438 1.04689 13.9287 1.13746C14.1137 1.22803 14.2747 1.35963 14.3991 1.52189C14.5235 1.68415 14.6078 1.87261 14.6455 2.07242C14.6831 2.27222 14.673 2.47789 14.616 2.6732C16.7362 3.23835 18.6082 4.47435 19.9428 6.19027C21.2774 7.90619 22.0003 10.0065 22 12.1669ZM17.1867 7.04633L10.5867 10.7546L6.81334 17.2468L13.4133 13.5385L17.184 7.04765L17.1867 7.04633Z" fill="#1C2024"/>
</svg>
