<svg width="24" height="24" viewBox="0 0 24 24" fill="none" xmlns="http://www.w3.org/2000/svg">
<path d="M5.3475 15.8626C5.47725 15.9952 5.57667 16.1552 5.63868 16.3314C5.70069 16.5076 5.72376 16.6955 5.70625 16.8818C5.61818 17.744 5.45164 18.596 5.20875 19.4268C6.9525 19.0158 8.0175 18.5399 8.50125 18.2905C8.77563 18.149 9.09161 18.1155 9.38875 18.1963C10.2404 18.4284 11.1184 18.5448 12 18.5424C16.995 18.5424 20.75 14.9706 20.75 10.9075C20.75 6.84439 16.995 3.2725 12 3.2725C7.005 3.2725 3.25 6.84567 3.25 10.9075C3.25 12.7755 4.02125 14.5086 5.3475 15.8626ZM4.73125 20.8317C4.43507 20.8914 4.13795 20.9461 3.84 20.9958C3.59 21.0365 3.4 20.7719 3.49875 20.5352C3.60944 20.2686 3.71117 19.9982 3.80375 19.7246L3.8075 19.7119C4.1175 18.7957 4.37 17.7421 4.4625 16.761C2.92875 15.1958 2 13.1471 2 10.9075C2 5.988 6.4775 2 12 2C17.5225 2 22 5.988 22 10.9075C22 15.8269 17.5225 19.8149 12 19.8149C11.0095 19.8172 10.0231 19.6863 9.06625 19.4256C8.41625 19.7602 7.0175 20.3698 4.73125 20.8317Z" fill="currentColor"/>
<path d="M7 7.72623C7 7.55749 7.06585 7.39566 7.18306 7.27634C7.30027 7.15702 7.45924 7.08998 7.625 7.08998H16.375C16.5408 7.08998 16.6997 7.15702 16.8169 7.27634C16.9342 7.39566 17 7.55749 17 7.72623C17 7.89498 16.9342 8.05681 16.8169 8.17613C16.6997 8.29545 16.5408 8.36248 16.375 8.36248H7.625C7.45924 8.36248 7.30027 8.29545 7.18306 8.17613C7.06585 8.05681 7 7.89498 7 7.72623ZM7 10.9075C7 10.7387 7.06585 10.5769 7.18306 10.4576C7.30027 10.3383 7.45924 10.2712 7.625 10.2712H16.375C16.5408 10.2712 16.6997 10.3383 16.8169 10.4576C16.9342 10.5769 17 10.7387 17 10.9075C17 11.0762 16.9342 11.238 16.8169 11.3574C16.6997 11.4767 16.5408 11.5437 16.375 11.5437H7.625C7.45924 11.5437 7.30027 11.4767 7.18306 11.3574C7.06585 11.238 7 11.0762 7 10.9075ZM7 14.0887C7 13.92 7.06585 13.7581 7.18306 13.6388C7.30027 13.5195 7.45924 13.4525 7.625 13.4525H12.625C12.7908 13.4525 12.9497 13.5195 13.0669 13.6388C13.1842 13.7581 13.25 13.92 13.25 14.0887C13.25 14.2575 13.1842 14.4193 13.0669 14.5386C12.9497 14.6579 12.7908 14.725 12.625 14.725H7.625C7.45924 14.725 7.30027 14.6579 7.18306 14.5386C7.06585 14.4193 7 14.2575 7 14.0887Z" fill="currentColor"/>
</svg>
