<svg width="24" height="24" viewBox="0 0 24 24" fill="none" xmlns="http://www.w3.org/2000/svg">
<path d="M8.375 10.75C8.20924 10.75 8.05027 10.8158 7.93306 10.9331C7.81585 11.0503 7.75 11.2092 7.75 11.375C7.75 11.5408 7.81585 11.6997 7.93306 11.8169C8.05027 11.9342 8.20924 12 8.375 12H14.625C14.7908 12 14.9497 11.9342 15.0669 11.8169C15.1842 11.6997 15.25 11.5408 15.25 11.375C15.25 11.2092 15.1842 11.0503 15.0669 10.9331C14.9497 10.8158 14.7908 10.75 14.625 10.75H8.375ZM7.75 13.875C7.75 13.7092 7.81585 13.5503 7.93306 13.4331C8.05027 13.3158 8.20924 13.25 8.375 13.25H14.625C14.7908 13.25 14.9497 13.3158 15.0669 13.4331C15.1842 13.5503 15.25 13.7092 15.25 13.875C15.25 14.0408 15.1842 14.1997 15.0669 14.3169C14.9497 14.4342 14.7908 14.5 14.625 14.5H8.375C8.20924 14.5 8.05027 14.4342 7.93306 14.3169C7.81585 14.1997 7.75 14.0408 7.75 13.875ZM7.75 16.375C7.75 16.2092 7.81585 16.0503 7.93306 15.9331C8.05027 15.8158 8.20924 15.75 8.375 15.75H10.875C11.0408 15.75 11.1997 15.8158 11.3169 15.9331C11.4342 16.0503 11.5 16.2092 11.5 16.375C11.5 16.5408 11.4342 16.6997 11.3169 16.8169C11.1997 16.9342 11.0408 17 10.875 17H8.375C8.20924 17 8.05027 16.9342 7.93306 16.8169C7.81585 16.6997 7.75 16.5408 7.75 16.375Z" fill="currentColor"/>
<path d="M13.375 2H6.5C5.83696 2 5.20107 2.26339 4.73223 2.73223C4.26339 3.20107 4 3.83696 4 4.5V19.5C4 20.163 4.26339 20.7989 4.73223 21.2678C5.20107 21.7366 5.83696 22 6.5 22H16.5C17.163 22 17.7989 21.7366 18.2678 21.2678C18.7366 20.7989 19 20.163 19 19.5V7.625L13.375 2ZM13.375 3.25V5.75C13.375 6.24728 13.5725 6.72419 13.9242 7.07583C14.2758 7.42746 14.7527 7.625 15.25 7.625H17.75V19.5C17.75 19.8315 17.6183 20.1495 17.3839 20.3839C17.1495 20.6183 16.8315 20.75 16.5 20.75H6.5C6.16848 20.75 5.85054 20.6183 5.61612 20.3839C5.3817 20.1495 5.25 19.8315 5.25 19.5V4.5C5.25 4.16848 5.3817 3.85054 5.61612 3.61612C5.85054 3.3817 6.16848 3.25 6.5 3.25H13.375Z" fill="currentColor"/>
</svg>
