<svg width="24" height="24" viewBox="0 0 24 24" fill="none" xmlns="http://www.w3.org/2000/svg">
<path d="M0.6936 24C0.3106 24 0 23.6868 0 23.3004V0.6996C0 0.3132 0.3106 0 0.6936 0H3.1987C3.4532 0 3.6873 0.1406 3.8086 0.3663L12.3332 16.2355C12.4494 16.4519 12.2941 16.7149 12.0501 16.7149C11.8064 16.7149 11.6511 16.4523 11.7668 16.236L20.2591 0.3673C20.3802 0.141 20.6146 0 20.8696 0H23.3064C23.6894 0 24 0.3132 24 0.6995V23.3004C24 23.6868 23.6894 24 23.3064 24H20.778C20.3949 24 20.0844 23.6868 20.0844 23.3004V6.7465C20.0844 6.5927 20.208 6.4681 20.3605 6.4681C20.5704 6.4681 20.7035 6.695 20.6025 6.8805L13.4634 19.9946C13.3415 20.2184 13.1085 20.3574 12.8553 20.3574H11.1434C10.8909 20.3574 10.6584 20.2191 10.5363 19.9962L3.3519 6.8838C3.2412 6.6818 3.3861 6.434 3.615 6.434C3.781 6.434 3.9156 6.5698 3.9156 6.7372V23.3004C3.9156 23.6868 3.6051 24 3.222 24H0.6936Z" fill="white"/>
</svg>
