<svg xmlns="http://www.w3.org/2000/svg" width="24" height="24" viewBox="0 0 24 24" fill="none">
  <path d="M12 2C10.3431 2 9 3.34315 9 5V12C9 13.6569 10.3431 15 12 15C13.6569 15 15 13.6569 15 12V5C15 3.34315 13.6569 2 12 2Z" fill="currentColor"/>
  <path d="M7 11C7 10.4477 6.55228 10 6 10C5.44772 10 5 10.4477 5 11V12C5 15.5265 7.60771 18.4439 11 18.9291V21C11 21.5523 11.4477 22 12 22C12.5523 22 13 21.5523 13 21V18.9291C16.3923 18.4439 19 15.5265 19 12V11C19 10.4477 18.5523 10 18 10C17.4477 10 17 10.4477 17 11V12C17 14.7614 14.7614 17 12 17C9.23858 17 7 14.7614 7 12V11Z" fill="currentColor"/>
</svg>
