<svg width="24" height="24" viewBox="0 0 24 24" fill="none" xmlns="http://www.w3.org/2000/svg">
<path fill-rule="evenodd" clip-rule="evenodd" d="M20.125 8.14258C20.6223 8.14258 21.0995 8.34633 21.4512 8.70801C21.8026 9.06962 22 9.56 22 10.0713V19.0713C22 19.5828 21.8028 20.0739 21.4512 20.4355C21.0995 20.7972 20.6223 21 20.125 21H3.875C3.37774 21 2.90046 20.7972 2.54883 20.4355C2.1972 20.0739 2 19.5828 2 19.0713V10.0713C2.00004 9.56 2.19742 9.06962 2.54883 8.70801C2.90046 8.34633 3.37772 8.14258 3.875 8.14258H20.125ZM10.3604 13.4199C10.2686 13.2407 10.0164 13.2406 9.9248 13.4199L9.58887 14.0752C9.2545 14.724 8.72492 15.2535 8.07617 15.5879L7.4209 15.9248C7.24163 16.0164 7.24078 16.2686 7.41992 16.3604L8.07617 16.6973C8.7248 17.0317 9.25357 17.5613 9.58789 18.21L9.9248 18.8652C10.0164 19.0448 10.2687 19.0448 10.3604 18.8652L10.3613 18.8643L10.6973 18.21C11.0317 17.5611 11.5611 17.0317 12.21 16.6973L12.8643 16.3604C13.0438 16.2687 13.0448 16.0164 12.8652 15.9248L12.21 15.5889C11.5611 15.2545 11.0317 14.725 10.6973 14.0762L10.3613 13.4209L10.3604 13.4199ZM5.3125 11.5059C5.26647 11.4156 5.14076 11.4156 5.09473 11.5059L4.82617 12.0283C4.5529 12.5584 4.12091 12.9914 3.59082 13.2646L3.06836 13.5332C2.97838 13.5793 2.97727 13.705 3.06738 13.751L3.58984 14.0186C4.12009 14.2918 4.55284 14.7247 4.82617 15.2549L5.09473 15.7773C5.13503 15.8563 5.23657 15.8669 5.29199 15.8076L5.3125 15.7773L5.58008 15.2559C5.85332 14.7257 6.2863 14.2929 6.81641 14.0195L7.33887 13.751C7.42891 13.705 7.42976 13.5793 7.33984 13.5332L6.81738 13.2646C6.28706 12.9913 5.85438 12.5587 5.58105 12.0283L5.3125 11.5059ZM8.42969 9.05859C8.3917 8.98424 8.27817 8.97709 8.23438 9.05957L8.19043 9.14648C7.97782 9.55889 7.6419 9.89484 7.22949 10.1074L7.1416 10.1514C7.06731 10.1893 7.06032 10.3028 7.14258 10.3467L7.22949 10.3906C7.64194 10.6032 7.97783 10.9391 8.19043 11.3516L8.19238 11.3555L8.23535 11.4395C8.27331 11.5137 8.38579 11.5207 8.42969 11.4385L8.47363 11.3516C8.68621 10.9391 9.02218 10.6032 9.43457 10.3906L9.52246 10.3467C9.5968 10.3087 9.60389 10.1952 9.52148 10.1514L9.43457 10.1074C9.02214 9.89481 8.68623 9.55892 8.47363 9.14648L8.42969 9.05859Z" fill="#1C2024"/>
<path d="M18.875 5.57129C19.0408 5.57129 19.2002 5.63921 19.3174 5.75977C19.4343 5.8802 19.4999 6.04364 19.5 6.21387C19.5 6.38428 19.4345 6.5484 19.3174 6.66895C19.2002 6.7895 19.0408 6.85742 18.875 6.85742H5.125C4.95924 6.85742 4.79983 6.7895 4.68262 6.66895C4.56551 6.5484 4.5 6.38428 4.5 6.21387C4.50011 6.04364 4.56565 5.8802 4.68262 5.75977C4.79983 5.63921 4.95924 5.57129 5.125 5.57129H18.875Z" fill="#1C2024"/>
<path d="M16.375 3C16.5408 3 16.7002 3.06792 16.8174 3.18848C16.9343 3.30894 16.9999 3.47233 17 3.64258C17 3.81303 16.9345 3.97711 16.8174 4.09766C16.7002 4.21822 16.5408 4.28613 16.375 4.28613H7.625C7.45924 4.28613 7.29983 4.21822 7.18262 4.09766C7.06547 3.97711 7 3.81303 7 3.64258C7.00007 3.47233 7.06566 3.30894 7.18262 3.18848C7.29983 3.06792 7.45924 3 7.625 3H16.375Z" fill="currentColor"/>
</svg>
