<svg width="24" height="24" viewBox="0 0 24 24" fill="none" xmlns="http://www.w3.org/2000/svg">
<path fill-rule="evenodd" clip-rule="evenodd" d="M12 5.08292C13.2312 4.04886 15.0167 3.89368 16.6416 4.05362C18.534 4.24047 20.4439 4.87457 21.6338 5.40323C21.743 5.45174 21.8355 5.53032 21.9004 5.62882C21.9652 5.72726 22 5.84184 22 5.9589V19.3896C22 19.4917 21.9739 19.5929 21.9238 19.6825C21.8737 19.7721 21.8007 19.848 21.7129 19.9032C21.625 19.9584 21.5241 19.9915 21.4199 19.9989C21.3158 20.0063 21.2113 19.9875 21.1162 19.9452C20.015 19.4568 18.2371 18.8698 16.5146 18.7001C14.7548 18.5268 13.2785 18.8059 12.4873 19.7704C12.4287 19.8417 12.3549 19.8998 12.2705 19.9394C12.1861 19.9789 12.0936 19.9989 12 19.9989C11.9064 19.9989 11.8139 19.9789 11.7295 19.9394C11.6451 19.8998 11.5713 19.8417 11.5127 19.7704C10.7214 18.8059 9.24461 18.5267 7.4834 18.7001C5.7623 18.8699 3.98621 19.4569 2.88379 19.9452C2.78871 19.9875 2.68425 20.0063 2.58008 19.9989C2.47593 19.9915 2.37496 19.9584 2.28711 19.9032C2.19926 19.848 2.12627 19.7721 2.07617 19.6825C2.02607 19.5929 2.00003 19.4917 2 19.3896V5.9589C2.00003 5.84184 2.03479 5.72726 2.09961 5.62882C2.16454 5.53032 2.25705 5.45174 2.36621 5.40323C3.55614 4.87457 5.466 4.24047 7.3584 4.05362C8.98332 3.8949 10.7688 4.04886 12 5.08292ZM12 6.99991C11.8342 6.99991 11.6748 7.06629 11.5576 7.1835C11.4407 7.30064 11.375 7.4594 11.375 7.62491V11.3749H7.625C7.45924 11.3749 7.29983 11.4413 7.18262 11.5585C7.0657 11.6756 7.00004 11.8344 7 11.9999C7 12.1656 7.06546 12.3251 7.18262 12.4423C7.29983 12.5595 7.45924 12.6249 7.625 12.6249H11.375V16.3749C11.375 16.5406 11.4405 16.7001 11.5576 16.8173C11.6748 16.9345 11.8342 16.9999 12 16.9999C12.1658 16.9999 12.3252 16.9345 12.4424 16.8173C12.5595 16.7001 12.625 16.5406 12.625 16.3749V12.6249H16.375C16.5408 12.6249 16.7002 12.5595 16.8174 12.4423C16.9345 12.3251 17 12.1656 17 11.9999C17 11.8344 16.9343 11.6756 16.8174 11.5585C16.7002 11.4413 16.5408 11.3749 16.375 11.3749H12.625V7.62491C12.625 7.4594 12.5593 7.30064 12.4424 7.1835C12.3252 7.06629 12.1658 6.99991 12 6.99991Z" fill="currentColor"/>
</svg>
