<svg width="24" height="24" viewBox="0 0 24 24" fill="none" xmlns="http://www.w3.org/2000/svg">
<path fill-rule="evenodd" clip-rule="evenodd" d="M12 2C17.52 2 22 6.48 22 12C22 17.52 17.52 22 12 22C6.48 22 2 17.52 2 12C2 6.48 6.48 2 12 2ZM12 7C11.8342 7 11.6748 7.06541 11.5576 7.18262C11.4404 7.29983 11.375 7.45924 11.375 7.625V11.375H7.625C7.45924 11.375 7.29983 11.4404 7.18262 11.5576C7.06541 11.6748 7 11.8342 7 12C7 12.1658 7.06541 12.3252 7.18262 12.4424C7.29983 12.5596 7.45924 12.625 7.625 12.625H11.375V16.375C11.375 16.5408 11.4404 16.7002 11.5576 16.8174C11.6748 16.9346 11.8342 17 12 17C12.1658 17 12.3252 16.9346 12.4424 16.8174C12.5596 16.7002 12.625 16.5408 12.625 16.375V12.625H16.375C16.5408 12.625 16.7002 12.5596 16.8174 12.4424C16.9346 12.3252 17 12.1658 17 12C17 11.8342 16.9346 11.6748 16.8174 11.5576C16.7002 11.4404 16.5408 11.375 16.375 11.375H12.625V7.625C12.625 7.45924 12.5596 7.29983 12.4424 7.18262C12.3252 7.06541 12.1658 7 12 7Z" fill="currentColor"/>
</svg>
