<svg width="24" height="24" viewBox="0 0 24 24" fill="none" xmlns="http://www.w3.org/2000/svg">
<path fill-rule="evenodd" clip-rule="evenodd" d="M8.46447 3.46447C9.40215 2.52678 10.6739 2 12 2C13.3261 2 14.5979 2.52678 15.5355 3.46447C16.4732 4.40215 17 5.67392 17 7C17 8.32608 16.4732 9.59785 15.5355 10.5355C14.5979 11.4732 13.3261 12 12 12C10.6739 12 9.40215 11.4732 8.46447 10.5355C7.52678 9.59785 7 8.32608 7 7C7 5.67392 7.52678 4.40215 8.46447 3.46447ZM10.5 19C11 19.5 13 20.5 13 20.5C13 20.5 13.5 21.134 14 22H7H5V19C5 17.6739 5.52678 16.4021 6.46447 15.4645C7.40215 14.5268 8.67392 14 10 14H12.5C13.0523 14 13.5 14.4477 13.5 15C13.5 15.5523 13.5 17.5 13 17.5L10.5 19Z" fill="currentColor"/>
<path d="M15 22L15.94 19.93L18 19L15.94 18.07L15 16L14.08 18.07L12 19L14.08 19.93L15 22Z" fill="currentColor"/>
<path d="M19.5 17L20 15L22 14.5L20 14L19.5 12L19 14L17 14.5L19 15L19.5 17Z" fill="currentColor"/>
</svg>
