<svg width="24" height="24" viewBox="0 0 24 24" fill="none" xmlns="http://www.w3.org/2000/svg">
<path fill-rule="evenodd" clip-rule="evenodd" d="M13 3V4H19.5C19.8978 4 20.2794 4.15804 20.5607 4.43934C20.842 4.72064 21 5.10218 21 5.5V9.5C21 9.89783 20.842 10.2794 20.5607 10.5607C20.2794 10.842 19.8978 11 19.5 11H13V13H17.5C17.8978 13 18.2794 13.158 18.5607 13.4393C18.842 13.7206 19 14.1022 19 14.5V18.5C19 18.8978 18.842 19.2794 18.5607 19.5607C18.2794 19.842 17.8978 20 17.5 20H13V21C13 21.5523 12.5523 22 12 22C11.4477 22 11 21.5523 11 21V20H4.5C4.10218 20 3.72064 19.842 3.43934 19.5607C3.15804 19.2794 3 18.8978 3 18.5V14.5C3 14.1022 3.15804 13.7206 3.43934 13.4393C3.72064 13.158 4.10218 13 4.5 13H11V11H6.5C6.10218 11 5.72064 10.842 5.43934 10.5607C5.15804 10.2794 5 9.89783 5 9.5V5.5C5 5.10218 5.15804 4.72064 5.43934 4.43934C5.72064 4.15804 6.10218 4 6.5 4H11V3C11 2.44772 11.4477 2 12 2C12.5523 2 13 2.44772 13 3Z" fill="currentColor"/>
</svg>